<?xml version="1.0" encoding="utf-8"?>
<svg class="img-fluid" id="outputsvg" xmlns="http://www.w3.org/2000/svg" width="600" height="200" viewBox="0 0 6000 2000" xmlns:bx="https://boxy-svg.com"><defs><bx:export><bx:file format="svg" excluded="true"/><bx:file format="svg" path="Untitled 2.svg"/></bx:export></defs><g id="l3vonsYJzLUekaVkPbixQem" fill="rgb(234,230,222)" style="transform: none;"><g style="transform: none;"/></g><g id="l2adgrCdZ3vkajEjw943hlk" fill="rgb(230,184,52)" style="transform: none;"><g style="transform: none;"><path id="pX95Wi0Y5" d="M 1010 1831 C 924 1822 881 1815 825 1800 C 803 1795 776 1789 765 1787 C 736 1783 633 1735 575 1698 C 484 1641 368 1513 308 1406 C 214 1236 184 974 235 782 C 264 676 361.211 490.113 409.211 437.113 C 427.211 418.113 429 413 433 405 C 437 397 519.302 325.479 524.302 325.479 C 529.302 325.479 474 376 492 357 C 543 305 613 256 677 226 C 709 211 746 193 760 187 C 774 180 814 168 850 161 C 886 154 922 144 931 140 C 970 120 1195 133 1295 161 C 1317 167 1346 175 1360 177 C 1385 183 1431 202 1440 211 C 1446 217 1481 234 1528 253 C 1545 260 1560 269 1560 273 C 1560 278 1565 281 1571 281 C 1604 281 1758 430 1818 518 C 1868 591 1920 692 1920 715 C 1920 724 1926 744 1934 759 C 1966 821 1979 1009 1960 1127 C 1940 1249 1858 1450 1818 1475 C 1808 1481 1800 1490 1800 1496 C 1800 1506 1673 1641 1663 1641 C 1661 1641 1642 1654 1622 1670 C 1589 1696 1570.309 1716.322 1513.309 1745.322 C 1502.309 1750.322 1476.181 1773.517 1437.181 1784.517 C 1209.181 1852.517 1176 1847 1010 1831 Z M 1096 1063 C 1104 1059 1106 1023 1104 961 C 1102 909 1101 826 1100 778 C 1100 692 1099 690 1078 693 C 1055 696 1055 697 1055 876 C 1055 975 1056 1059 1058 1064 C 1062 1073 1082 1073 1096 1063 Z" style="fill: rgb(255, 204, 59);"/></g></g><g id="l2oKKIW5s6fuZ58xAMRl9pR" fill="rgb(29,36,29)" style="transform: none;"><g style="transform: none;"><path id="p14y1UVcEP" d="M822 1800 c-19 -4 -38 -12 -43 -17 -6 -6 -11 -43 -12 -84 l-2 -74 36 -18 c71 -34 146 -47 282 -47 136 0 194 10 278 47 43 19 46 23 52 68 12 86 10 95 -28 111 -42 17 -95 18 -96 2 -1 -40 -9 -91 -14 -96 -9 -10 -268 -14 -325 -5 l-55 8 1 58 c2 63 -1 65 -74 47z"/><path id="pPel31b7s" d="M1351 1488 c-93 -42 -289 -59 -409 -36 -57 12 -141 33 -164 43 -17 7 -18 -6 -18 -181 l0 -189 56 -145 c105 -273 143 -375 175 -473 37 -110 60 -135 103 -116 16 8 32 30 45 63 10 28 34 87 51 131 18 44 38 96 46 115 19 51 60 160 90 238 84 218 83 211 84 399 0 95 -3 173 -7 172 -5 0 -28 -10 -52 -21z m-71 -221 c0 -32 -6 -70 -14 -86 -19 -36 -83 -93 -124 -110 -17 -7 -33 -21 -33 -30 -3 -36 -8 -181 -8 -264 -1 -86 -2 -88 -23 -85 -23 3 -23 4 -23 183 l0 180 -43 20 c-58 28 -110 80 -122 124 -10 36 -14 114 -6 122 2 2 92 4 200 4 l196 0 0 -58z"/><path id="pFp7nccLH" d="M 3565 1456 C 3398 1436 3285 1348 3230 1196 C 3169 1027 3257 833 3428 756 C 3501 724 3614 709 3686 722 C 3761 736 3859 784 3907 831 C 3979 901 4028 1040 4017 1139 C 4007 1236 3928 1344 3825 1406 C 3746 1452 3664 1468 3565 1456 Z M 3722 1228 C 3775 1193 3793 1153 3788 1081 C 3781 983 3727 931 3627 925 C 3577 922 3556 926 3521 945 C 3462 975 3440 1008 3433 1074 C 3427 1136 3440 1171 3485 1213 C 3541 1266 3653 1273 3722 1228 Z" style="fill: rgb(255, 255, 255);"/><path id="pLySBJx7X" d="M 2489 1419.69 C 2468 1394.69 2452 549.69 2472 529.69 C 2482 519.69 2565 514.69 2847 509.69 L 3209 502.69 L 3215 526.69 C 3218 539.69 3220 584.69 3218 625.69 L 3215 700.69 L 3145 706.69 C 3107 710.69 2988 713.69 2883 714.69 L 2690 715.69 L 2690 905.69 L 3079 905.69 L 3085 938.69 C 3088 955.69 3090 999.69 3088 1035.69 L 3085 1100.69 L 2898 1103.69 C 2677 1106.69 2701 1083.69 2697 1290.69 L 2695 1430.69 L 2599 1433.69 C 2519 1435.69 2501 1433.69 2489 1419.69 Z" style="fill: rgb(255, 255, 255);"/><path id="pXvYNkmXW" d="M 4142 1434 C 4125 1417 4123 1380 4112 1036 C 4105 828 4100 620 4100 574 C 4100 495 4101 491 4126 482 C 4157 470 4290 469 4308 480 C 4318 487 4323 567 4330 813 C 4335 991 4342 1201 4345 1280 C 4350 1384 4348 1427 4339 1438 C 4320 1461 4166 1458 4142 1434 Z" style="fill: rgb(255, 255, 255);"/><path id="pjT4wf6p7" d="M 4477 1442 C 4468 1434 4459 1415 4456 1400 C 4446 1342 4439 792 4449 777 C 4463 756 4631 749 4647 769 C 4663 788 4684 1425 4669 1443 C 4652 1463 4497 1462 4477 1442 Z" style="fill: rgb(255, 255, 255);"/><path id="pvyORNcsN" d="M 5060 1443 C 4990 1429 4895 1378 4854 1331 C 4775 1240 4737 1115 4759 1014 C 4782 905 4827 838 4913 781 C 4987 733 5050 714 5142 714 C 5312 714 5451 798 5517 939 C 5541 990 5545 1012 5545 1084 C 5545 1155 5541 1178 5519 1224 C 5486 1295 5442 1345 5372 1391 C 5285 1449 5181 1467 5060 1443 Z M 5209 1248 C 5247 1240 5297 1193 5317 1146 C 5328 1120 5329 1101 5320 1056 C 5304 966 5242 914 5150 914 C 5087 914 5026 943 5000 987 C 4973 1031 4973 1127 5000 1171 C 5038 1233 5123 1265 5209 1248 Z" style="fill: rgb(255, 255, 255);"/><path id="pFG0xKHlx" d="M 4510 668 C 4431 641 4418 531 4489 484 C 4539 450 4585 454 4626 495 C 4654 523 4660 536 4660 573 C 4660 610 4654 622 4627 649 C 4592 683 4567 687 4510 668 Z" style="fill: rgb(255, 255, 255);"/></g></g></svg>