<svg class="img-fluid" id="outputsvg" xmlns="http://www.w3.org/2000/svg" width="180" height="180" viewBox="0 0 1800 1800"><g id="lRpSi9oBZUeU0HHVR0Cgla" fill="rgb(233,189,59)" style="transform: none;"><g style="transform: none;"><path id="p16VtNNwAf" d="M 740 1776 c -4 -3 -81 -25 -175 -50 -27 -7 -135 -61 -180 -89 -143 -90 -278 -273 -329 -447 -66 -221 -44 -437 64 -652 61 -121 97 -164 209 -258 72 -60 86 -70 177 -118 52 -28 130 -53 224 -72 85 -18 123 -20 198 -15 83 6 92 5 92 -11 0 -16 1 -16 18 -1 10 10 26 17 36 17 9 0 19 7 22 15 4 8 16 15 28 15 13 0 26 3 30 7 14 15 82 32 103 27 18 -5 23 -2 23 13 0 14 13 26 40 38 22 10 40 22 40 27 0 4 5 8 11 8 18 0 145 108 187 159 89 107 135 189 179 318 24 71 26 92 27 233 0 149 -2 159 -33 250 -37 109 -77 184 -135 255 -40 49 -124 135 -132 135 -2 0 -27 18 -56 40 -29 22 -57 40 -61 40 -5 0 -21 8 -35 18 -27 18 -77 35 -212 74 -56 16 -110 23 -215 25 -78 2 -143 2 -145 -1 z "></path></g></g><g id="l2KCVaBZ2qfpmuuB4seHUpm" fill="rgb(31,39,31)" style="transform: none;"><g style="transform: none;"><path id="pw0l0iIK3" d="M 635 1746 c -22 -6 -45 -14 -50 -18 -6 -3 -12 -40 -13 -81 -3 -74 -3 -74 47 -95 80 -35 169 -52 275 -52 107 0 190 17 274 55 44 21 52 29 53 52 0 16 2 37 5 48 9 42 -4 62 -50 75 -65 18 -81 12 -82 -32 -2 -71 6 -68 -193 -68 -120 0 -182 4 -187 11 -5 9 -10 45 -14 112 0 9 -14 7 -65 -7 z "></path><path id="pZni9HLKE" d="M 570 1259 c 0 -188 0 -188 46 -311 25 -68 52 -136 59 -153 7 -16 20 -52 30 -80 10 -27 24 -63 31 -80 7 -16 32 -85 55 -153 30 -89 48 -128 65 -139 43 -28 77 0 107 88 8 24 41 110 72 189 31 80 70 181 87 225 16 44 33 89 38 100 52 131 51 125 56 311 3 100 2 184 -3 187 -4 3 -42 -7 -83 -21 -70 -25 -86 -27 -245 -27 -155 1 -176 3 -242 26 -73 25 -73 25 -73 -162 z  m 520 -56 c 0 -60 -1 -63 -50 -117 -28 -30 -66 -60 -84 -66 -43 -14 -46 -29 -46 -226 0 -155 -6 -178 -36 -153 -13 11 -15 39 -13 175 4 179 3 181 -62 214 -58 30 -99 90 -106 154 -3 30 -3 61 0 68 4 11 45 14 201 13 196 0 196 0 196 -62 z "></path></g></g></svg>